<?xml version="1.0" standalone="no"?><!DOCTYPE svg PUBLIC "-//W3C//DTD SVG 1.1//EN" "http://www.w3.org/Graphics/SVG/1.1/DTD/svg11.dtd"><svg t="1617175266560" class="icon" viewBox="0 0 1024 1024" version="1.1" xmlns="http://www.w3.org/2000/svg" p-id="2123" xmlns:xlink="http://www.w3.org/1999/xlink" width="200" height="200"><defs><style type="text/css"></style></defs><path d="M512.005 7.249071C233.236278 7.249071 7.249071 233.236278 7.249071 512.005S233.236278 1016.760929 512.005 1016.760929 1016.760929 790.773722 1016.760929 512.005 790.773722 7.249071 512.005 7.249071zM510.228983 235.002295c76.492747 0 138.501353 62.007606 138.501352 138.501352 0 49.482483-26.398258 95.20493-69.250676 119.946172-42.852418 24.740242-95.648934 24.740242-138.501353 0-42.852418-24.742242-69.250676-70.463688-69.250676-119.946172 0-76.493747 62.008606-138.501353 138.501353-138.501352z m269.900635 525.597133c0 7.101069 0 28.408277-31.963312 28.408277H275.840694c-24.859243 0-31.960312-14.206139-31.960312-31.960312v-95.887936c0-28.408277 21.307208-85.230832 95.883936-85.230833h333.82526c63.923624 0 106.54004 31.963312 106.54004 95.886937v88.783867z" p-id="2124"></path></svg>