<?xml version="1.0" standalone="no"?><!DOCTYPE svg PUBLIC "-//W3C//DTD SVG 1.1//EN" "http://www.w3.org/Graphics/SVG/1.1/DTD/svg11.dtd"><svg t="1612408757323" class="icon" viewBox="0 0 1024 1024" version="1.1" xmlns="http://www.w3.org/2000/svg" p-id="23933" xmlns:xlink="http://www.w3.org/1999/xlink" width="200" height="200"><defs><style type="text/css"></style></defs><path d="M889.6 172.8c-12.8-12.8-32-12.8-44.8 0-12.8 12.8-12.8 32 0 44.8 76.8 83.2 115.2 185.6 115.2 294.4 0 115.2-44.8 230.4-128 313.6-83.2 83.2-192 128-313.6 128-249.6 6.4-448-192-448-435.2 0-115.2 44.8-217.6 121.6-300.8 6.4-19.2 6.4-38.4-6.4-51.2-12.8-12.8-32-12.8-44.8 0C57.6 262.4 6.4 390.4 6.4 518.4 6.4 793.6 236.8 1024 512 1024c134.4 0 262.4-51.2 358.4-147.2s147.2-224 147.2-358.4c0-128-44.8-249.6-128-345.6z" p-id="23934"></path><path d="M505.6 704s6.4 6.4 12.8 6.4h25.6c0-6.4 6.4-6.4 6.4-6.4l236.8-236.8c12.8-12.8 12.8-32 0-44.8s-32-12.8-44.8 0L563.2 601.6V32c0-19.2-12.8-32-32-32s-32 12.8-32 32v569.6L320 422.4c-12.8-12.8-32-12.8-44.8 0s-12.8 32 0 44.8L505.6 704z" p-id="23935"></path></svg>