<svg width="112" height="72" viewBox="0 0 112 72" fill="none" xmlns="http://www.w3.org/2000/svg">
<path d="M100 32H76C74.9391 32 73.9217 31.5786 73.1716 30.8284C72.4214 30.0783 72 29.0609 72 28V16C72 11.7565 73.6857 7.68687 76.6863 4.68629C79.6869 1.68571 83.7565 0 88 0C92.2435 0 96.3131 1.68571 99.3137 4.68629C102.314 7.68687 104 11.7565 104 16V28C104 29.0609 103.579 30.0783 102.828 30.8284C102.078 31.5786 101.061 32 100 32ZM80 24H96V16C96 13.8783 95.1571 11.8434 93.6569 10.3431C92.1566 8.84286 90.1217 8 88 8C85.8783 8 83.8434 8.84286 82.3431 10.3431C80.8429 11.8434 80 13.8783 80 16V24Z" fill="#0E6AE0"/>
<path d="M76 64C74.9391 64 73.9217 63.5786 73.1716 62.8284C72.4214 62.0783 72 61.0609 72 60V40C72 38.9391 71.5786 37.9217 70.8284 37.1716C70.0783 36.4214 69.0609 36 68 36H12C8.8174 36 5.76516 37.2643 3.51472 39.5147C1.26428 41.7652 0 44.8174 0 48V60C0 63.1826 1.26428 66.2348 3.51472 68.4853C5.76516 70.7357 8.8174 72 12 72H76C77.0609 72 78.0783 71.5786 78.8284 70.8284C79.5786 70.0783 80 69.0609 80 68C80 66.9391 79.5786 65.9217 78.8284 65.1716C78.0783 64.4214 77.0609 64 76 64Z" fill="#D8E1EF"/>
<path d="M23.4 48.6C23.2204 48.4086 23.0036 48.2562 22.7628 48.1519C22.522 48.0477 22.2624 47.9939 22 47.9939C21.7376 47.9939 21.478 48.0477 21.2372 48.1519C20.9964 48.2562 20.7796 48.4086 20.6 48.6L18 51.16L15.4 48.6C15.0287 48.2287 14.5251 48.0201 14 48.0201C13.4749 48.0201 12.9713 48.2287 12.6 48.6C12.2287 48.9713 12.0201 49.4749 12.0201 50C12.0201 50.5251 12.2287 51.0287 12.6 51.4L15.16 54L12.6 56.6C12.2287 56.9713 12.0201 57.4749 12.0201 58C12.0201 58.5251 12.2287 59.0287 12.6 59.4C12.9713 59.7713 13.4749 59.9799 14 59.9799C14.5251 59.9799 15.0287 59.7713 15.4 59.4L18 56.84L20.6 59.4C20.7839 59.5838 21.0021 59.7297 21.2423 59.8292C21.4825 59.9287 21.74 59.9799 22 59.9799C22.26 59.9799 22.5175 59.9287 22.7577 59.8292C22.9979 59.7297 23.2162 59.5838 23.4 59.4C23.5839 59.2161 23.7297 58.9979 23.8292 58.7576C23.9287 58.5174 23.9799 58.26 23.9799 58C23.9799 57.74 23.9287 57.4825 23.8292 57.2423C23.7297 57.0021 23.5839 56.7838 23.4 56.6L20.84 54L23.4 51.4C23.5913 51.2204 23.7438 51.0035 23.8481 50.7627C23.9523 50.522 24.0061 50.2624 24.0061 50C24.0061 49.7376 23.9523 49.478 23.8481 49.2372C23.7438 48.9964 23.5913 48.7795 23.4 48.6Z" fill="#0593FF"/>
<path d="M39.4 48.6C39.2205 48.4086 39.0036 48.2562 38.7628 48.1519C38.522 48.0477 38.2624 47.9939 38 47.9939C37.7376 47.9939 37.478 48.0477 37.2372 48.1519C36.9964 48.2562 36.7796 48.4086 36.6 48.6L34 51.16L31.4 48.6C31.2162 48.4161 30.9979 48.2703 30.7577 48.1708C30.5175 48.0713 30.26 48.0201 30 48.0201C29.74 48.0201 29.4825 48.0713 29.2423 48.1708C29.0021 48.2703 28.7839 48.4161 28.6 48.6C28.4162 48.7838 28.2703 49.0021 28.1708 49.2423C28.0713 49.4825 28.0201 49.74 28.0201 50C28.0201 50.26 28.0713 50.5174 28.1708 50.7576C28.2703 50.9979 28.4162 51.2161 28.6 51.4L31.16 54L28.6 56.6C28.2287 56.9713 28.0201 57.4749 28.0201 58C28.0201 58.5251 28.2287 59.0287 28.6 59.4C28.9713 59.7713 29.4749 59.9799 30 59.9799C30.5251 59.9799 31.0287 59.7713 31.4 59.4L34 56.84L36.6 59.4C36.7839 59.5838 37.0021 59.7297 37.2423 59.8292C37.4825 59.9287 37.74 59.9799 38 59.9799C38.26 59.9799 38.5175 59.9287 38.7577 59.8292C38.9979 59.7297 39.2162 59.5838 39.4 59.4C39.5839 59.2161 39.7297 58.9979 39.8292 58.7576C39.9287 58.5174 39.9799 58.26 39.9799 58C39.9799 57.74 39.9287 57.4825 39.8292 57.2423C39.7297 57.0021 39.5839 56.7838 39.4 56.6L36.84 54L39.4 51.4C39.5913 51.2204 39.7438 51.0035 39.8481 50.7627C39.9523 50.522 40.0061 50.2624 40.0061 50C40.0061 49.7376 39.9523 49.478 39.8481 49.2372C39.7438 48.9964 39.5913 48.7795 39.4 48.6Z" fill="#0593FF"/>
<path d="M52.84 54L55.4 51.4C55.7713 51.0287 55.9799 50.5251 55.9799 50C55.9799 49.4749 55.7713 48.9713 55.4 48.6C55.0287 48.2287 54.5251 48.0201 54 48.0201C53.4749 48.0201 52.9713 48.2287 52.6 48.6L50 51.16L47.4 48.6C47.0287 48.2287 46.5251 48.0201 46 48.0201C45.4749 48.0201 44.9713 48.2287 44.6 48.6C44.2287 48.9713 44.0201 49.4749 44.0201 50C44.0201 50.5251 44.2287 51.0287 44.6 51.4L47.16 54L44.6 56.6C44.2287 56.9713 44.0201 57.4749 44.0201 58C44.0201 58.5251 44.2287 59.0287 44.6 59.4C44.9713 59.7713 45.4749 59.9799 46 59.9799C46.5251 59.9799 47.0287 59.7713 47.4 59.4L50 56.84L52.6 59.4C52.7838 59.5838 53.0021 59.7297 53.2423 59.8292C53.4825 59.9287 53.74 59.9799 54 59.9799C54.26 59.9799 54.5174 59.9287 54.7577 59.8292C54.9979 59.7297 55.2161 59.5838 55.4 59.4C55.5838 59.2161 55.7297 58.9979 55.8292 58.7577C55.9287 58.5175 55.9799 58.26 55.9799 58C55.9799 57.74 55.9287 57.4825 55.8292 57.2423C55.7297 57.0021 55.5838 56.7838 55.4 56.6L52.84 54Z" fill="#0593FF"/>
<path d="M100 24H76C69.3726 24 64 29.3726 64 36V60C64 66.6274 69.3726 72 76 72H100C106.627 72 112 66.6274 112 60V36C112 29.3726 106.627 24 100 24Z" fill="#0593FF"/>
<path d="M96 44C96.0084 42.5937 95.646 41.21 94.9493 39.9884C94.2526 38.7668 93.2461 37.7505 92.0314 37.0418C90.8166 36.3332 89.4366 35.9573 88.0303 35.952C86.6239 35.9467 85.2411 36.3122 84.0211 37.0117C82.801 37.7111 81.7869 38.7199 81.081 39.9362C80.3751 41.1525 80.0023 42.5334 80.0001 43.9398C79.998 45.3461 80.3666 46.7281 81.0688 47.9466C81.7711 49.165 82.7821 50.1768 84 50.88V56C84 57.0609 84.4214 58.0783 85.1715 58.8285C85.9217 59.5786 86.9391 60 88 60C89.0608 60 90.0783 59.5786 90.8284 58.8285C91.5786 58.0783 92 57.0609 92 56V50.88C93.2091 50.182 94.2145 49.1797 94.9162 47.9727C95.6179 46.7657 95.9916 45.3961 96 44Z" fill="#0E6AE0"/>
</svg>
