 <svg
    t="1576762045074"
    class="icon"
    viewBox="0 0 1024 1024"
    version="1.1"
    xmlns="http://www.w3.org/2000/svg"
    p-id="3861"
    width="200"
    height="200"
  >
    <path
      d="M512 938.666667C276.352 938.666667 85.333333 747.648 85.333333 512S276.352 85.333333 512 85.333333s426.666667 191.018667 426.666667 426.666667-191.018667 426.666667-426.666667 426.666667z m-97.706667-99.541334A763.733333 763.733333 0 0 1 342.485333 554.666667H173.312a341.674667 341.674667 0 0 0 240.981333 284.458666zM427.946667 554.666667c6.442667 104.064 36.181333 201.813333 84.053333 288.085333A678.613333 678.613333 0 0 0 596.053333 554.666667h-168.106666z m422.741333 0h-169.173333a763.733333 763.733333 0 0 1-71.808 284.458666A341.674667 341.674667 0 0 0 850.688 554.666667zM173.312 469.333333h169.173333A763.733333 763.733333 0 0 1 414.293333 184.874667 341.674667 341.674667 0 0 0 173.312 469.333333z m254.677333 0h168.021334A678.613333 678.613333 0 0 0 512 181.248 678.613333 678.613333 0 0 0 427.946667 469.333333z m181.717334-284.458666A763.733333 763.733333 0 0 1 681.514667 469.333333h169.173333a341.674667 341.674667 0 0 0-240.981333-284.458666z"
      p-id="3862"
      data-spm-anchor-id="a313x.7781069.0.i12"
    />
  </svg>