<svg width="78" height="72" viewBox="0 0 78 72" fill="none" xmlns="http://www.w3.org/2000/svg">
<path d="M70.35 15.33L40.35 0.330002C39.9313 0.118999 39.4689 0.00908661 39 0.00908661C38.5311 0.00908661 38.0687 0.118999 37.65 0.330002L7.65 15.33C7.15526 15.5793 6.73921 15.9607 6.44797 16.432C6.15673 16.9033 6.00168 17.446 6 18V63C6 65.3869 6.94821 67.6761 8.63604 69.364C10.3239 71.0518 12.6131 72 15 72H63C65.3869 72 67.6761 71.0518 69.364 69.364C71.0518 67.6761 72 65.3869 72 63V18C71.9983 17.446 71.8433 16.9033 71.552 16.432C71.2608 15.9607 70.8447 15.5793 70.35 15.33Z" fill="#D8E1EF"/>
<path d="M48 36H30C29.2044 36 28.4413 35.6839 27.8787 35.1213C27.3161 34.5587 27 33.7956 27 33V30C27 26.8174 28.2643 23.7652 30.5147 21.5147C32.7652 19.2643 35.8174 18 39 18C42.1826 18 45.2348 19.2643 47.4853 21.5147C49.7357 23.7652 51 26.8174 51 30V33C51 33.7956 50.6839 34.5587 50.1213 35.1213C49.5587 35.6839 48.7956 36 48 36ZM33 30H45C45 28.4087 44.3679 26.8826 43.2426 25.7574C42.1174 24.6321 40.5913 24 39 24C37.4087 24 35.8826 24.6321 34.7574 25.7574C33.6321 26.8826 33 28.4087 33 30Z" fill="#0E6AE0"/>
<path d="M51 30H27C23.6863 30 21 32.6863 21 36V54C21 57.3137 23.6863 60 27 60H51C54.3137 60 57 57.3137 57 54V36C57 32.6863 54.3137 30 51 30Z" fill="#0593FF"/>
<path d="M39 51C37.8133 51 36.6533 50.6481 35.6666 49.9888C34.6799 49.3295 33.9109 48.3925 33.4567 47.2961C33.0026 46.1997 32.8838 44.9933 33.1153 43.8295C33.3468 42.6656 33.9182 41.5965 34.7574 40.7574C35.5965 39.9182 36.6656 39.3468 37.8295 39.1153C38.9933 38.8838 40.1997 39.0026 41.2961 39.4567C42.3925 39.9109 43.3295 40.6799 43.9888 41.6666C44.6481 42.6533 45 43.8133 45 45C45 46.5913 44.3679 48.1174 43.2426 49.2426C42.1174 50.3679 40.5913 51 39 51Z" fill="#0E6AE0"/>
<path d="M74.9999 24C74.5293 24.0056 74.0649 23.8921 73.6499 23.67L38.9999 6.36L4.34992 23.67C3.65064 23.9612 2.86709 23.9771 2.15658 23.7145C1.44608 23.4518 0.861214 22.9302 0.51942 22.2542C0.177627 21.5782 0.104207 20.7979 0.3139 20.07C0.523593 19.3422 1.00088 18.7205 1.64992 18.33L37.6499 0.330002C38.0687 0.118999 38.531 0.00908661 38.9999 0.00908661C39.4688 0.00908661 39.9312 0.118999 40.3499 0.330002L76.3499 18.33C77.0565 18.6897 77.592 19.3144 77.8393 20.0677C78.0867 20.8209 78.0257 21.6415 77.6699 22.35C77.4206 22.8447 77.0392 23.2608 76.5679 23.552C76.0966 23.8433 75.5539 23.9983 74.9999 24Z" fill="#0593FF"/>
</svg>
