<?xml version="1.0" standalone="no"?><!DOCTYPE svg PUBLIC "-//W3C//DTD SVG 1.1//EN" "http://www.w3.org/Graphics/SVG/1.1/DTD/svg11.dtd"><svg t="1612408766373" class="icon" viewBox="0 0 1024 1024" version="1.1" xmlns="http://www.w3.org/2000/svg" p-id="24084" xmlns:xlink="http://www.w3.org/1999/xlink" width="200" height="200"><defs><style type="text/css"></style></defs><path d="M508.586667 337.92c0-3.413333 3.413333-10.24 3.413333-13.653333 0-3.413333-3.413333-10.24-3.413333-13.653334L467.626667 273.066667 709.973333 30.72c6.826667-6.826667 6.826667-13.653333 6.826667-20.48s-10.24-10.24-17.066667-10.24c-163.84 0-300.373333 122.88-341.333333 163.84l-20.48-23.893333c-3.413333 0-10.24-3.413333-13.653333-3.413334s-10.24 3.413333-13.653334 3.413334l-30.72 30.72L170.666667 283.306667l-30.72 27.306666c-3.413333 6.826667-3.413333 20.48 0 27.306667l20.48 20.48C122.88 399.36 0 535.893333 0 699.733333c0 6.826667 3.413333 13.653333 10.24 17.066667h6.826667c3.413333 0 10.24-3.413333 13.653333-3.413333L273.066667 467.626667l37.546666 37.546666c6.826667 6.826667 17.066667 6.826667 23.893334 0l20.48-20.48 126.293333-126.293333 27.306667-20.48zM1020.586667 890.88l-512-508.586667-126.293334 126.293334 508.586667 508.586666c3.413333 3.413333 6.826667 3.413333 13.653333 3.413334 58.026667 0 119.466667-61.44 119.466667-119.466667 0 0-3.413333-6.826667-3.413333-10.24zM146.773333 256l109.226667-109.226667-27.306667-27.306666c-23.893333-23.893333-61.44-23.893333-85.333333 0l-23.893333 27.306666c-23.893333 23.893333-23.893333 61.44 0 85.333334l27.306666 23.893333z" p-id="24085"></path></svg>