<?xml version="1.0" standalone="no"?><!DOCTYPE svg PUBLIC "-//W3C//DTD SVG 1.1//EN" "http://www.w3.org/Graphics/SVG/1.1/DTD/svg11.dtd"><svg t="1612408775070" class="icon" viewBox="0 0 1024 1024" version="1.1" xmlns="http://www.w3.org/2000/svg" p-id="24224" xmlns:xlink="http://www.w3.org/1999/xlink" width="200" height="200"><defs><style type="text/css"></style></defs><path d="M298.918991 611.682462a30.089846 30.089846 0 1 0 0 60.179692h185.107692v132.332308a30.089846 30.089846 0 0 0 60.179692 0v-132.332308h176.128a30.089846 30.089846 0 1 0 0-60.179692h-176.167384v-84.598154h176.128a30.089846 30.089846 0 1 0 0-60.179693h-176.128v-33.752615l146.353231-137.846154a30.089846 30.089846 0 1 0-41.275077-43.795692l-138.397539 130.56-138.397538-130.56a30.129231 30.129231 0 0 0-41.353846 43.795692l152.891076 144.226462v27.56923H299.076529a30.089846 30.089846 0 0 0 0 60.179693h184.910769v84.598154H298.918991z m0 0" p-id="24225"></path><path d="M925.528222 225.792a508.928 508.928 0 0 0-835.66277-12.996923V144.974769a28.435692 28.435692 0 0 0-56.871384 0v167.502769a27.569231 27.569231 0 0 0 3.938461 13.784616 28.120615 28.120615 0 0 0 51.672616 0 452.923077 452.923077 0 1 1-31.940923 264.270769 28.435692 28.435692 0 1 0-55.965539 10.003692 509.833846 509.833846 0 1 0 924.711385-374.823384" p-id="24226"></path></svg>