<?xml version="1.0" standalone="no"?><!DOCTYPE svg PUBLIC "-//W3C//DTD SVG 1.1//EN" "http://www.w3.org/Graphics/SVG/1.1/DTD/svg11.dtd"><svg t="1612408782356" class="icon" viewBox="0 0 1024 1024" version="1.1" xmlns="http://www.w3.org/2000/svg" p-id="24365" xmlns:xlink="http://www.w3.org/1999/xlink" width="200" height="200"><defs><style type="text/css"></style></defs><path d="M900.267 362.667a32 32 0 0 0-7.04-34.774L679.893 114.56A32 32 0 0 0 635.52 160l157.867 157.867h-686.72a32 32 0 1 0 0 64h763.946a32 32 0 0 0 29.654-19.2zM341.333 917.333a32 32 0 0 0 0-45.226L183.467 714.24h687.146a32 32 0 0 0 0-64H106.667a32 32 0 0 0-22.614 54.613l213.334 213.334a32 32 0 0 0 43.946-0.854z" p-id="24366"></path></svg>